extratorrent.com
 
http://extratorrent.com/torrent/2432937/

IMDB = http://www.imdb.com/title/tt1486185/

Title: Red Riding Hood
Year: 2011
Runtime: 100 mins
Votes: 7,149
Rating: 4.9
Language: English
Country: USA, Canada
Director: Catherine Hardwicke
Writing By: David Johnson
Produced By: Leonardo DiCaprio Catherine Hardwicke Michael Ireland Jennifer Davisson Killoran Alex Mace Jim Rowe Julie Yorn
Music: Alex Heffes Brian Reitzell

Plot:-

Valerie (Seyfried) is a beautiful young woman torn between two men. She is in love with a brooding outsider, Peter (Fernandez), but her parents have arranged for her to marry the wealthy Henry (Irons). Unwilling to lose each other, Valerie and Peter are planning to run away together

Cast:

... Amanda Seyfried as Valerie
... Gary Oldman as Father Solomon
... Billy Burke as Cesaire
... Shiloh Fernandez as Peter
... Max Irons as Henry Lazar
... Virginia Madsen as Suzette
... Lukas Haas as Father Auguste
... Julie Christie as Grandmother
... Shauna Kain as Roxanne
... Michael Hogan as The Reeve

Format : AVI
Format/Info : Audio Video Interleave
File size : 702 MiB
Duration : 1h 39mn
Overall bit rate : 984 Kbps
Writing application : MEncoder SVN-r1.0~rc3+svn20090426-4.4.3
Writing library : VirtualDub build 32842/release

Video
ID : 0
Format : MPEG-4 Visual
Format profile : Advanced Simple@L5
Format settings, BVOP : Yes
Format settings, QPel : No
Format settings, GMC : No warppoints
Format settings, Matrix : Custom
Codec ID : XVID
Codec ID/Hint : XviD
Duration : 1h 39mn
Bit rate : 850 Kbps
Width : 640 pixels
Height : 272 pixels
Display aspect ratio : 2.35:1
Frame rate : 24.000 fps
Original frame rate : 25.000 fps
Resolution : 8 bits
Colorimetry : 4:2:0
Scan type : Progressive
Bits/(Pixel*Frame) : 0.204
Stream size : 607 MiB (86%)
Writing library : XviD 58

Audio
ID : 1
Format : MPEG Audio
Format version : Version 1
Format profile : Layer 3
Codec ID : 55
Codec ID/Hint : MP3
Duration : 1h 35mn
Bit rate mode : Constant
Bit rate : 128 Kbps
Channel(s) : 2 channels
Sampling rate : 44.1 KHz
Video delay : 2s 508ms
Stream size : 87.2 MiB (12%)
Alignment : Split accross interleaves
Interleave, duration : 27 ms (0.66 video frame)
Interleave, preload duration : 1440 ms

 
http://shareimage.org/images/l6bwvvvtcbqwslgwm8.png
 
http://shareimage.org/images/fn2zdnspn1mcns0a7j1.png
 
http://shareimage.org/images/skp95hnzeupglz81x8by.png
 
http://stashbox.org/1119220/vlcsnap-2011-05-24-16h21m50s32.png
 
http://stashbox.org/1119222/vlcsnap-2011-05-24-16h21m47s5.png